<svg width="30" height="25" viewBox="0 0 30 25" fill="none" xmlns="http://www.w3.org/2000/svg">
<path d="M5.74219 16.6993V20.9766L7.26562 20.0977C7.26562 19.2969 7.28906 16.5586 7.38281 16.6993C7.47656 16.8399 7.8125 16.7579 7.96875 16.6993C7.59375 16.4181 7.42188 16.1524 7.38281 16.0547L7.26562 15.293L8.26172 16.1133L8.4375 15.9375L7.5 14.9414L7.44141 14.4141C7.67578 14.5508 8.20312 14.8828 8.4375 15.1172C8.67188 15.3515 9.27734 15.332 9.55078 15.293L7.44141 13.5937C7.67578 13.2656 8.04688 13.457 8.20312 13.5937C8.4375 13.5937 8.90625 13.8867 9.31641 14.2969C9.64453 14.625 10.0391 14.707 10.1953 14.707C10 14.4141 9.64453 13.8164 9.78516 13.7695C9.92578 13.7227 10.3516 13.9062 10.5469 14.0039C10.4883 13.6523 8.96484 12.0703 9.08203 12.0703C9.17578 12.0703 9.58984 12.2266 9.78516 12.3047C10.1133 12.9141 11.9922 13.7695 12.8906 14.1211C12.0938 13.6055 10.6836 11.6406 10.0781 10.7227C9.04688 10.7227 8.35938 10.1758 8.14453 9.90234C8.26172 9.84375 8.55469 9.75 8.78906 9.84375C9.02344 9.9375 9.27734 9.96094 9.375 9.96094C8.34375 9.02344 8.16406 8.51563 8.20312 8.37891C8.8125 8.94141 9.86328 9.16016 10.3125 9.19922C10.0781 8.35547 8.80859 6.89453 8.20312 6.26953C8.41797 6.19141 8.89453 6.10547 9.08203 6.38672C9.26953 6.66797 9.62891 6.62109 9.78516 6.5625C9.60938 6.28906 9.10547 5.55469 8.49609 4.80469C7.88672 4.05469 7.85156 3.82812 7.91016 3.80859H8.49609C8.32031 3.51562 7.79297 2.8125 7.67578 2.51953C7.58203 2.28516 7.05078 0.742188 6.79688 0C6.67969 0.351562 5.33203 3.22266 5.09766 3.39844C4.91016 3.53906 4.78516 3.73047 4.74609 3.80859L5.625 3.86719C5.625 4.10156 5.19531 4.35547 4.98047 4.45312C4.60547 4.59375 4.23828 5.01953 4.10156 5.21484H4.80469C4.66406 5.77734 3.37891 7.71484 2.75391 8.61328C3.26953 8.75391 4.45312 7.92969 4.98047 7.5C4.83984 8.29687 2.85156 10.7227 1.875 11.8359C2.42188 11.8945 3.5625 11.918 3.75 11.543C3.9375 11.168 4.21875 11.1133 4.33594 11.1328C4.33594 11.4141 3.47656 12.4219 3.04688 12.8906C2.63672 13.1836 1.79297 13.8398 1.69922 14.1211C1.60547 14.4023 1.03516 15.2148 0.761719 15.5859C1.03516 15.4492 1.71094 15.1641 2.22656 15.1172C2.74219 15.0703 3.61328 14.4726 3.98438 14.1797L2.63672 15.7617L3.28125 15.5273C2.76562 15.9023 2.12891 16.582 1.875 16.875C1.54688 17.4375 0.488281 18.4766 0 18.9258C0.429688 18.7891 1.39453 18.4336 1.81641 18.1055C2.23828 17.7773 2.69531 17.8125 2.87109 17.8711C2.87109 17.5898 3.14453 17.4414 3.28125 17.4023C4.03125 17.2617 4.21875 16.7578 4.21875 16.5234H4.51172L5.09766 16.2305L5.74219 15.293V16.1719C5.74219 16.3002 5.57951 16.5359 5.47685 16.6652C5.4673 16.6747 5.45805 16.686 5.44922 16.6993C5.45775 16.689 5.46703 16.6776 5.47685 16.6652C5.56874 16.5739 5.68911 16.6462 5.74219 16.6993Z" fill="#1F2C1E"/>
<path d="M24.2578 16.6993V20.9766L22.7344 20.0977C22.7344 19.2969 22.7109 16.5586 22.6172 16.6993C22.5234 16.8399 22.1875 16.7579 22.0312 16.6993C22.4062 16.4181 22.5781 16.1524 22.6172 16.0547L22.7344 15.293L21.7383 16.1133L21.5625 15.9375L22.5 14.9414L22.5586 14.4141C22.3242 14.5508 21.7969 14.8828 21.5625 15.1172C21.3281 15.3515 20.7227 15.332 20.4492 15.293L22.5586 13.5937C22.3242 13.2656 21.9531 13.457 21.7969 13.5937C21.5625 13.5937 21.0938 13.8867 20.6836 14.2969C20.3555 14.625 19.9609 14.707 19.8047 14.707C20 14.4141 20.3555 13.8164 20.2148 13.7695C20.0742 13.7227 19.6484 13.9062 19.4531 14.0039C19.5117 13.6523 21.0352 12.0703 20.918 12.0703C20.8242 12.0703 20.4102 12.2266 20.2148 12.3047C19.8867 12.9141 18.0078 13.7695 17.1094 14.1211C17.9062 13.6055 19.3164 11.6406 19.9219 10.7227C20.9531 10.7227 21.6406 10.1758 21.8555 9.90234C21.7383 9.84375 21.4453 9.75 21.2109 9.84375C20.9766 9.9375 20.7227 9.96094 20.625 9.96094C21.6562 9.02344 21.8359 8.51563 21.7969 8.37891C21.1875 8.94141 20.1367 9.16016 19.6875 9.19922C19.9219 8.35547 21.1914 6.89453 21.7969 6.26953C21.582 6.19141 21.1055 6.10547 20.918 6.38672C20.7305 6.66797 20.3711 6.62109 20.2148 6.5625C20.3906 6.28906 20.8945 5.55469 21.5039 4.80469C22.1133 4.05469 22.1484 3.82812 22.0898 3.80859H21.5039C21.6797 3.51562 22.207 2.8125 22.3242 2.51953C22.418 2.28516 22.9492 0.742188 23.2031 0C23.3203 0.351562 24.668 3.22266 24.9023 3.39844C25.0898 3.53906 25.2148 3.73047 25.2539 3.80859L24.375 3.86719C24.375 4.10156 24.8047 4.35547 25.0195 4.45312C25.3945 4.59375 25.7617 5.01953 25.8984 5.21484H25.1953C25.3359 5.77734 26.6211 7.71484 27.2461 8.61328C26.7305 8.75391 25.5469 7.92969 25.0195 7.5C25.1602 8.29687 27.1484 10.7227 28.125 11.8359C27.5781 11.8945 26.4375 11.918 26.25 11.543C26.0625 11.168 25.7812 11.1133 25.6641 11.1328C25.6641 11.4141 26.5234 12.4219 26.9531 12.8906C27.3633 13.1836 28.207 13.8398 28.3008 14.1211C28.3945 14.4023 28.9648 15.2148 29.2383 15.5859C28.9648 15.4492 28.2891 15.1641 27.7734 15.1172C27.2578 15.0703 26.3867 14.4726 26.0156 14.1797L27.3633 15.7617L26.7188 15.5273C27.2344 15.9023 27.8711 16.582 28.125 16.875C28.4531 17.4375 29.5117 18.4766 30 18.9258C29.5703 18.7891 28.6055 18.4336 28.1836 18.1055C27.7617 17.7773 27.3047 17.8125 27.1289 17.8711C27.1289 17.5898 26.8555 17.4414 26.7188 17.4023C25.9688 17.2617 25.7812 16.7578 25.7812 16.5234H25.4883L24.9023 16.2305L24.2578 15.293V16.1719C24.2578 16.3002 24.4205 16.5359 24.5231 16.6652C24.5327 16.6747 24.5419 16.686 24.5508 16.6993C24.5423 16.689 24.533 16.6776 24.5231 16.6652C24.4313 16.5739 24.3109 16.6462 24.2578 16.6993Z" fill="#1F2C1E"/>
<path d="M14.6484 13.5938L2.57812 22.7344L15.5273 16.875L29.5312 24.1992L14.6484 13.5938Z" fill="#1F2C1E"/>
</svg>
