<svg width="628" height="239" viewBox="0 0 628 239" fill="none" xmlns="http://www.w3.org/2000/svg">
<path d="M44.75 145.625L68.4375 72.5H85.625L54.1875 165H34.9375L3.5 72.5H20.625L44.75 145.625ZM165.175 111.375V126.125H125.55V150.312H171.55V165H108.925V72.5H171.55V87.1875H125.55V111.375H165.175ZM219.975 125.812L235.288 120.75L265.85 165H246.85L219.975 125.812ZM214.975 87.1875V116.625H230.225C234.808 116.625 238.538 115.292 241.413 112.625C244.288 109.958 245.725 106.396 245.725 101.938C245.725 97.4375 244.288 93.8542 241.413 91.1875C238.538 88.5208 234.808 87.1875 230.225 87.1875H214.975ZM198.35 165V72.5H230.225C236.642 72.5 242.246 73.8542 247.038 76.5625C251.871 79.2292 255.621 82.7917 258.288 87.25C260.996 91.7083 262.35 96.6042 262.35 101.938C262.35 107.229 260.996 112.104 258.288 116.562C255.621 121.021 251.871 124.604 247.038 127.312C242.246 130.021 236.642 131.375 230.225 131.375H214.975V165H198.35ZM334.712 165H318.087V87.1875H288.65V72.5H364.15V87.1875H334.712V165Z" fill="#E2DBAF"/>
<path d="M24.1719 212.812C24.1719 214.391 24.4453 215.797 24.9922 217.031C25.5547 218.266 26.3516 219.242 27.3828 219.961C28.4141 220.664 29.625 221.016 31.0156 221.016C32.4375 221.016 33.6562 220.664 34.6719 219.961C35.7031 219.258 36.4922 218.289 37.0391 217.055C37.6016 215.82 37.8828 214.406 37.8828 212.812C37.8828 211.219 37.6016 209.805 37.0391 208.57C36.4922 207.336 35.7031 206.367 34.6719 205.664C33.6562 204.961 32.4375 204.609 31.0156 204.609C29.625 204.609 28.4141 204.961 27.3828 205.664C26.3516 206.367 25.5547 207.336 24.9922 208.57C24.4453 209.805 24.1719 211.219 24.1719 212.812ZM19.1094 212.812C19.1094 210.359 19.6328 208.18 20.6797 206.273C21.7266 204.352 23.1484 202.844 24.9453 201.75C26.7422 200.656 28.7656 200.109 31.0156 200.109C33.2812 200.109 35.3125 200.656 37.1094 201.75C38.9062 202.844 40.3281 204.352 41.375 206.273C42.4219 208.18 42.9453 210.359 42.9453 212.812C42.9453 215.266 42.4219 217.453 41.375 219.375C40.3281 221.281 38.9062 222.781 37.1094 223.875C35.3125 224.969 33.2812 225.516 31.0156 225.516C28.7656 225.516 26.7422 224.969 24.9453 223.875C23.1484 222.781 21.7266 221.281 20.6797 219.375C19.6328 217.453 19.1094 215.266 19.1094 212.812ZM104.454 200.625V214.031C104.454 216.344 104.891 218.086 105.766 219.258C106.641 220.43 108.079 221.016 110.079 221.016C112.063 221.016 113.493 220.43 114.368 219.258C115.243 218.086 115.68 216.344 115.68 214.031V200.625H120.743V221.062C120.743 222.25 120.821 223.203 120.977 223.922C121.149 224.641 121.235 225 121.235 225H116.383C116.383 225 116.313 224.711 116.173 224.133C116.032 223.539 115.962 222.891 115.962 222.188C115.383 222.812 114.735 223.375 114.016 223.875C113.313 224.375 112.532 224.773 111.673 225.07C110.829 225.367 109.891 225.516 108.86 225.516C105.719 225.516 103.352 224.539 101.758 222.586C100.18 220.633 99.3913 217.781 99.3913 214.031V200.625H104.454ZM177.822 200.906C178.947 200.906 179.853 200.555 180.54 199.852C181.243 199.133 181.595 198.211 181.595 197.086V194.062H186.306V200.625H192.986V205.125H186.306V217.312C186.306 218.5 186.626 219.414 187.267 220.055C187.908 220.695 188.806 221.016 189.962 221.016C190.509 221.016 191.072 220.93 191.65 220.758C192.228 220.57 192.673 220.352 192.986 220.102L194.275 224.672C193.712 224.891 193.048 225.086 192.283 225.258C191.533 225.43 190.751 225.516 189.939 225.516C188.126 225.516 186.572 225.188 185.275 224.531C183.978 223.859 182.978 222.906 182.275 221.672C181.587 220.438 181.243 218.984 181.243 217.312V205.125H176.134V200.906H177.822ZM266.963 212.859C266.963 210.391 266.377 208.398 265.205 206.883C264.033 205.367 262.439 204.609 260.424 204.609C258.424 204.609 256.83 205.359 255.643 206.859C254.455 208.359 253.861 210.344 253.861 212.812C253.861 215.266 254.455 217.25 255.643 218.766C256.83 220.266 258.424 221.016 260.424 221.016C262.424 221.016 264.01 220.273 265.182 218.789C266.369 217.289 266.963 215.312 266.963 212.859ZM271.791 221.062C271.791 222.25 271.869 223.203 272.025 223.922C272.197 224.641 272.283 225 272.283 225H267.432C267.432 225 267.361 224.711 267.221 224.133C267.08 223.539 267.01 222.891 267.01 222.188C266.494 222.781 265.893 223.328 265.205 223.828C264.518 224.328 263.752 224.734 262.908 225.047C262.08 225.359 261.15 225.516 260.119 225.516C257.869 225.516 255.893 224.969 254.189 223.875C252.486 222.781 251.158 221.281 250.205 219.375C249.268 217.453 248.799 215.266 248.799 212.812C248.799 210.359 249.268 208.18 250.205 206.273C251.158 204.352 252.486 202.844 254.189 201.75C255.893 200.656 257.869 200.109 260.119 200.109C261.15 200.109 262.057 200.266 262.838 200.578C263.635 200.891 264.346 201.297 264.971 201.797C265.611 202.297 266.197 202.844 266.728 203.438V190.312H271.791V221.062ZM333.299 212.812C333.299 214.391 333.573 215.797 334.12 217.031C334.682 218.266 335.479 219.242 336.51 219.961C337.542 220.664 338.753 221.016 340.143 221.016C341.565 221.016 342.784 220.664 343.799 219.961C344.831 219.258 345.62 218.289 346.167 217.055C346.729 215.82 347.01 214.406 347.01 212.812C347.01 211.219 346.729 209.805 346.167 208.57C345.62 207.336 344.831 206.367 343.799 205.664C342.784 204.961 341.565 204.609 340.143 204.609C338.753 204.609 337.542 204.961 336.51 205.664C335.479 206.367 334.682 207.336 334.12 208.57C333.573 209.805 333.299 211.219 333.299 212.812ZM328.237 212.812C328.237 210.359 328.76 208.18 329.807 206.273C330.854 204.352 332.276 202.844 334.073 201.75C335.87 200.656 337.893 200.109 340.143 200.109C342.409 200.109 344.44 200.656 346.237 201.75C348.034 202.844 349.456 204.352 350.503 206.273C351.549 208.18 352.073 210.359 352.073 212.812C352.073 215.266 351.549 217.453 350.503 219.375C349.456 221.281 348.034 222.781 346.237 223.875C344.44 224.969 342.409 225.516 340.143 225.516C337.893 225.516 335.87 224.969 334.073 223.875C332.276 222.781 330.854 221.281 329.807 219.375C328.76 217.453 328.237 215.266 328.237 212.812ZM412.737 212.812C412.737 214.391 413.011 215.797 413.558 217.031C414.12 218.266 414.917 219.242 415.948 219.961C416.98 220.664 418.191 221.016 419.581 221.016C421.003 221.016 422.222 220.664 423.237 219.961C424.269 219.258 425.058 218.289 425.605 217.055C426.167 215.82 426.448 214.406 426.448 212.812C426.448 211.219 426.167 209.805 425.605 208.57C425.058 207.336 424.269 206.367 423.237 205.664C422.222 204.961 421.003 204.609 419.581 204.609C418.191 204.609 416.98 204.961 415.948 205.664C414.917 206.367 414.12 207.336 413.558 208.57C413.011 209.805 412.737 211.219 412.737 212.812ZM407.675 212.812C407.675 210.359 408.198 208.18 409.245 206.273C410.292 204.352 411.714 202.844 413.511 201.75C415.308 200.656 417.331 200.109 419.581 200.109C421.847 200.109 423.878 200.656 425.675 201.75C427.472 202.844 428.894 204.352 429.941 206.273C430.987 208.18 431.511 210.359 431.511 212.812C431.511 215.266 430.987 217.453 429.941 219.375C428.894 221.281 427.472 222.781 425.675 223.875C423.878 224.969 421.847 225.516 419.581 225.516C417.331 225.516 415.308 224.969 413.511 223.875C411.714 222.781 410.292 221.281 409.245 219.375C408.198 217.453 407.675 215.266 407.675 212.812ZM502.582 205.852C501.613 205.023 500.301 204.609 498.644 204.609C496.644 204.609 495.207 205.195 494.332 206.367C493.457 207.539 493.019 209.281 493.019 211.594V225H487.957V200.625H492.738V203.438C493.332 202.797 493.98 202.234 494.683 201.75C495.387 201.25 496.168 200.852 497.027 200.555C497.887 200.258 498.824 200.109 499.84 200.109C501.371 200.109 502.754 200.367 503.988 200.883L502.582 205.852ZM568.45 200.109C570.262 200.109 571.809 200.383 573.09 200.93C574.372 201.461 575.411 202.188 576.208 203.109C577.004 204.031 577.559 205.07 577.872 206.227L573.301 208.289C573.02 207.148 572.504 206.25 571.754 205.594C571.02 204.938 569.918 204.609 568.45 204.609C567.043 204.609 566.012 204.875 565.356 205.406C564.715 205.938 564.395 206.602 564.395 207.398C564.395 208.195 564.692 208.82 565.286 209.273C565.895 209.727 566.95 210.133 568.45 210.492C570.372 210.93 572.075 211.438 573.559 212.016C575.059 212.594 576.231 213.375 577.075 214.359C577.918 215.328 578.34 216.609 578.34 218.203C578.34 219.797 577.903 221.141 577.028 222.234C576.168 223.312 574.989 224.133 573.489 224.695C572.004 225.242 570.325 225.516 568.45 225.516C566.637 225.516 565.036 225.227 563.645 224.648C562.27 224.055 561.137 223.266 560.247 222.281C559.372 221.281 558.77 220.195 558.442 219.023L563.036 216.938C563.317 218.094 563.887 219.062 564.747 219.844C565.606 220.609 566.84 220.992 568.45 220.992C570.075 220.992 571.286 220.758 572.083 220.289C572.879 219.805 573.278 219.109 573.278 218.203C573.278 217.281 572.848 216.602 571.989 216.164C571.145 215.727 569.965 215.336 568.45 214.992C566.543 214.555 564.911 214.016 563.551 213.375C562.208 212.734 561.168 211.93 560.434 210.961C559.7 209.992 559.333 208.805 559.333 207.398C559.333 205.992 559.715 204.742 560.481 203.648C561.247 202.539 562.317 201.672 563.692 201.047C565.067 200.422 566.653 200.109 568.45 200.109Z" fill="#E2DBAF"/>
<path d="M421 142.5V179L434 171.5C434 164.667 434.2 141.3 435 142.5C435.8 143.701 438.667 143.001 440 142.5C436.8 140.101 435.333 137.834 435 137L434 130.5L442.5 137.5L444 136L436 127.5L435.5 123C437.5 124.167 442 127 444 129C446 131 451.167 130.833 453.5 130.5L435.5 116C437.5 113.2 440.667 114.833 442 116C444 116 448 118.5 451.5 122C454.3 124.8 457.667 125.5 459 125.5C457.333 123 454.3 117.9 455.5 117.5C456.7 117.1 460.333 118.667 462 119.5C461.5 116.5 448.5 103 449.5 103C450.3 103 453.833 104.333 455.5 105C458.3 110.2 474.333 117.5 482 120.5C475.2 116.1 463.167 99.3333 458 91.5C449.2 91.5 443.333 86.8333 441.5 84.5C442.5 84 445 83.2 447 84C449 84.8 451.167 85 452 85C443.2 77.0001 441.667 72.6667 442 71.5C447.2 76.3 456.167 78.1667 460 78.5C458 71.3 447.167 58.8333 442 53.5C443.833 52.8333 447.9 52.1 449.5 54.5C451.1 56.9 454.167 56.5 455.5 56C454 53.6667 449.7 47.4 444.5 41C439.3 34.6 439 32.6667 439.5 32.5H444.5C443 30 438.5 24 437.5 21.5C436.7 19.5 432.167 6.33333 430 0C429 3 417.5 27.5 415.5 29C413.9 30.2 412.833 31.8333 412.5 32.5L420 33C420 35 416.333 37.1667 414.5 38C411.3 39.2 408.167 42.8333 407 44.5H413C411.8 49.3 400.833 65.8333 395.5 73.5C399.9 74.7 410 67.6667 414.5 64C413.3 70.8 396.333 91.5 388 101C392.667 101.5 402.4 101.7 404 98.4999C405.6 95.2999 408 94.8333 409 94.9999C409 97.3999 401.667 106 398 110C394.5 112.5 387.3 118.1 386.5 120.5C385.7 122.9 380.833 129.833 378.5 133C380.833 131.833 386.6 129.4 391 129C395.4 128.6 402.833 123.5 406 121L394.5 134.5L400 132.5C395.6 135.7 390.167 141.5 388 144C385.2 148.8 376.167 157.667 372 161.5C375.667 160.333 383.9 157.3 387.5 154.5C391.1 151.7 395 152 396.5 152.5C396.5 150.1 398.833 148.833 400 148.5C406.4 147.3 408 143 408 141H410.5L415.5 138.5L421 130.5V138C421 139.095 419.612 141.107 418.736 142.21C418.654 142.291 418.575 142.387 418.5 142.5C418.573 142.413 418.652 142.316 418.736 142.21C419.52 141.431 420.547 142.048 421 142.5Z" fill="#E2DBAF"/>
<path d="M579 142.5V179L566 171.5C566 164.667 565.8 141.3 565 142.5C564.2 143.701 561.333 143.001 560 142.5C563.2 140.101 564.667 137.834 565 137L566 130.5L557.5 137.5L556 136L564 127.5L564.5 123C562.5 124.167 558 127 556 129C554 131 548.833 130.833 546.5 130.5L564.5 116C562.5 113.2 559.333 114.833 558 116C556 116 552 118.5 548.5 122C545.7 124.8 542.333 125.5 541 125.5C542.667 123 545.7 117.9 544.5 117.5C543.3 117.1 539.667 118.667 538 119.5C538.5 116.5 551.5 103 550.5 103C549.7 103 546.167 104.333 544.5 105C541.7 110.2 525.667 117.5 518 120.5C524.8 116.1 536.833 99.3333 542 91.5C550.8 91.5 556.667 86.8333 558.5 84.5C557.5 84 555 83.2 553 84C551 84.8 548.833 85 548 85C556.8 77.0001 558.333 72.6667 558 71.5C552.8 76.3 543.833 78.1667 540 78.5C542 71.3 552.833 58.8333 558 53.5C556.167 52.8333 552.1 52.1 550.5 54.5C548.9 56.9 545.833 56.5 544.5 56C546 53.6667 550.3 47.4 555.5 41C560.7 34.6 561 32.6667 560.5 32.5H555.5C557 30 561.5 24 562.5 21.5C563.3 19.5 567.833 6.33333 570 0C571 3 582.5 27.5 584.5 29C586.1 30.2 587.167 31.8333 587.5 32.5L580 33C580 35 583.667 37.1667 585.5 38C588.7 39.2 591.833 42.8333 593 44.5H587C588.2 49.3 599.167 65.8333 604.5 73.5C600.1 74.7 590 67.6667 585.5 64C586.7 70.8 603.667 91.5 612 101C607.333 101.5 597.6 101.7 596 98.4999C594.4 95.2999 592 94.8333 591 94.9999C591 97.3999 598.333 106 602 110C605.5 112.5 612.7 118.1 613.5 120.5C614.3 122.9 619.167 129.833 621.5 133C619.167 131.833 613.4 129.4 609 129C604.6 128.6 597.167 123.5 594 121L605.5 134.5L600 132.5C604.4 135.7 609.833 141.5 612 144C614.8 148.8 623.833 157.667 628 161.5C624.333 160.333 616.1 157.3 612.5 154.5C608.9 151.7 605 152 603.5 152.5C603.5 150.1 601.167 148.833 600 148.5C593.6 147.3 592 143 592 141H589.5L584.5 138.5L579 130.5V138C579 139.095 580.388 141.107 581.264 142.21C581.346 142.291 581.425 142.387 581.5 142.5C581.427 142.413 581.348 142.316 581.264 142.21C580.48 141.431 579.453 142.048 579 142.5Z" fill="#E2DBAF"/>
<path d="M497 116L394 194L504.5 144L624 206.5L497 116Z" fill="#E2DBAF"/>
</svg>
